PathFileType	4	(X/Y/Z)	Patient4_TMGait_0pt4_02_right_22.trc.trc
DataRate	CameraRate	NumFrames	NumMarkers	Units	OrigDataRate	OrigDataStartFrame	OrigNumFrames
76.923076923077	76.923076923077	4	33	mm	76.923076923077	89	       141
Frame#	Time	Sacral			L.Shoulder			Chest			R.Shoulder			Neck			R.ASIS			L.ASIS			R.Thigh.Superior			R.Thigh.Lateral			R.Thigh.Inferior			R.Patella			L.Thigh.Superior			L.Thigh.Lateral			L.Thigh.Inferior			L.Patella			L.Shank.Superior			L.Shank.Lateral			L.Shank.Inferior			R.Shank.Superior			R.Shank.Lateral			R.Shank.Inferior			R.Heel			R.Midfoot.Superior			R.Midfoot.Lateral			R.Toe			L.Heel			L.Midfoot.Lateral			L.Midfoot.Superior			L.Toe			L.Elbow			L.Wrist			R.Elbow			R.Wrist			
		X1	Y1	Z1	X2	Y2	Z2	X3	Y3	Z3	X4	Y4	Z4	X5	Y5	Z5	X6	Y6	Z6	X7	Y7	Z7	X8	Y8	Z8	X9	Y9	Z9	X10	Y10	Z10	X11	Y11	Z11	X12	Y12	Z12	X13	Y13	Z13	X14	Y14	Z14	X15	Y15	Z15	X16	Y16	Z16	X17	Y17	Z17	X18	Y18	Z18	X19	Y19	Z19	X20	Y20	Z20	X21	Y21	Z21	X22	Y22	Z22	X23	Y23	Z23	X24	Y24	Z24	X25	Y25	Z25	X26	Y26	Z26	X27	Y27	Z27	X28	Y28	Z28	X29	Y29	Z29	X30	Y30	Z30	X31	Y31	Z31	X32	Y32	Z32	X33	Y33	Z33	

89	30.014000000000	925.752436976019	1004.979584164190	470.749758404642	1083.418618415359	1431.377048831666	270.717931799810	1202.213852164815	1366.489127827925	421.684047954895	1136.061553159634	1441.767200711809	601.963339615627	1083.644406555444	1495.528180526103	426.601938499201	1160.334071364720	942.256986784316	572.805551726512	1131.579763027194	960.026486080563	300.370304620912	1194.771964954946	736.455273219650	553.012193928146	1116.045231846906	629.202403778076	624.170003126790	1191.848204628263	568.988268209397	547.814216856548	1184.954716033964	464.067986341742	569.371796438345	1197.908368695538	760.286163728655	326.701294065880	1119.743800105466	636.823227502042	268.169579785780	1216.084218141255	567.732384338766	324.995686088588	1223.488523298141	497.309099311401	332.552527008011	1198.583291930640	423.116434181628	325.292649513403	1110.561406492834	306.133547000751	275.920322777580	1169.565500558395	195.974478054727	343.391366361047	1114.954977901041	392.850000303745	577.499302585761	1002.376288506107	339.631629569979	643.601820179464	997.658199042139	230.443494179936	591.031026932203	803.868867215855	133.760628636545	570.475268768432	980.336125972853	113.585794360434	603.327930495007	876.674448178813	89.595462918466	642.246243558626	1069.531279704261	33.888451377371	628.298834870575	1048.589073947374	38.728141173814	389.365204242068	1118.793885523048	35.705335360335	305.356838579823	1202.502462546473	97.405395185584	329.480008149950	1330.081514399793	46.677908457368	295.196087567098	1034.900197486457	1080.771300105109	155.075595886028	1140.953540942908	839.615911638928	155.214293910664	1184.360177857330	1097.548873456716	724.689494494525	1384.075590521225	953.256916221831	651.122818657836	
90	30.027000000000	925.453308041411	1004.698824096692	467.249051365256	1084.790046739781	1431.201600715857	267.296074072251	1202.071721250088	1366.698441345618	419.581382760644	1134.038730913398	1442.115412605607	599.135139085389	1083.386206224351	1495.600426536785	423.114492898228	1159.616970638058	942.557080960431	570.722509726162	1132.314988962539	960.170747734023	298.169075674301	1199.747989043660	738.920866289663	551.182999116033	1124.011218780220	629.945980681125	622.538467473732	1202.071828835597	571.110445619366	546.814609930183	1196.431352086184	464.997020306821	568.941594846310	1197.226179763326	759.461745627381	323.738146766313	1117.997052666521	636.751767776928	265.658083615661	1213.712828078751	567.003762531518	322.643500042362	1220.583894403377	496.629826982707	330.309258344419	1195.358017127895	422.427913439948	323.427514047258	1106.757500131393	305.690314282340	274.391135388900	1165.103236269028	195.558267121424	342.492019733317	1124.587817285581	394.308034553464	576.899901864972	1010.062647929754	344.964052512051	642.833820658280	1002.380967866318	235.642371029460	591.075863188415	805.771111997357	146.960897853411	570.686709350231	981.161542443356	117.942218221193	603.277046163622	876.331786104267	99.084049913812	642.345937771640	1065.859562065640	33.291721958946	628.285305379960	1043.366634040033	38.758838528309	389.223207412466	1113.557270136717	35.597593507897	305.180326933631	1197.346722845961	97.215603070011	329.268903171735	1324.930760312712	46.305139046422	295.116331190953	1042.435140209637	1080.456298694986	149.437033675361	1155.018057086483	842.222470007783	151.034300390592	1175.285964843290	1097.240501068862	723.348544306840	1368.793178290076	941.529637793187	654.843260347603	
91	30.040000000000	925.091671579381	1004.410902130339	463.963976344243	1086.103802145196	1430.984666562590	264.080677138810	1201.857270899058	1366.880066498861	417.680343742573	1131.939517021426	1442.425159741004	596.498061945773	1083.118112967252	1495.666861145523	419.813733860065	1158.871232218717	942.910847653380	568.804342745983	1132.881922957121	960.362811163224	296.093748006252	1204.605524643703	741.687549150426	549.355424136186	1131.948804560341	631.048381122730	620.990096358204	1212.131885646301	573.691437444813	545.817614709915	1207.882651782018	466.491475342253	568.364999897238	1196.440544469625	758.721383230553	320.999024720510	1116.177981586411	636.715257955869	263.336214814181	1211.270755304782	566.312680756176	320.466732078954	1217.600184486322	495.978819566194	328.253317433535	1192.067779844070	421.789790001445	321.715276760450	1102.924702708537	305.305675803836	273.004317536188	1160.624196053737	195.172587199253	341.647480771102	1134.398487709346	396.198801854314	576.189965663930	1018.175779722523	350.539033217577	642.039919255117	1007.606115982198	241.200272916361	591.005681807941	808.609374922584	160.263691297140	570.813649491357	982.718617757362	122.895448372221	603.162035888227	876.926554765404	108.958283428039	642.378929387488	1063.012335734070	32.970520508234	628.226017256047	1038.170553449684	38.803332717116	389.076827124235	1108.348673971590	35.519334491120	305.008034854226	1192.213614175251	97.050376540578	329.058155168987	1319.797941905053	45.959844763680	295.020146042872	1050.277299906168	1080.206821984536	144.028566883966	1169.162329281502	845.019982689579	147.129080616144	1165.722694589916	1096.972543367157	722.064269245346	1352.368636059624	930.260465550767	658.775261312924	
92	30.053000000000	924.666881094827	1004.159807942955	460.894949254600	1087.335627411604	1430.768127025864	261.090847980756	1201.568347873265	1367.075402754202	415.980969860594	1129.785153396373	1442.733854244515	594.057849462464	1082.845096434271	1495.760151305219	416.719182577204	1158.115535790682	943.374065360361	567.045592785689	1133.298507867129	960.619422362209	294.145376994830	1209.210201776103	744.746021038682	547.509818279966	1139.692456818399	632.540173340931	619.519166974232	1221.816764963805	576.740109917306	544.789280275518	1219.128349141864	468.560862396238	567.645810438961	1195.571390223374	758.061387650462	318.488125428044	1114.268794984746	636.702297514390	261.252485282352	1208.752530024254	565.651304001737	318.493212575001	1214.537196304714	495.359538918424	326.437175963189	1188.712302320511	421.210386466279	320.202014254149	1099.063506400601	304.991075674460	271.797466072556	1156.126206945633	194.822873983338	340.890095824740	1144.232054436372	398.525739720886	575.388790223734	1026.576830628569	356.239280130280	641.222812490645	1013.308008380037	246.973998476808	590.832005168694	812.389487253491	173.198560483439	570.862482454354	985.112488587728	128.278833276027	602.996696496132	878.572484729698	118.846319350884	642.343357066466	1061.260663136619	33.053465857485	628.100169579213	1032.994430806174	38.858224891336	388.930627446051	1103.161707300194	35.469456318561	304.845539702405	1187.095866298242	96.910431162619	328.856421568931	1314.675306055816	45.645911427367	294.910851928071	1058.386071851004	1080.065384777949	138.912997232443	1183.346968050031	848.042146261972	143.526078227387	1155.752448597017	1096.812225759587	720.825974403605	1334.876346782351	919.547695508149	662.860467321976	
